<?xml version="1.0" standalone="no"?>
<!DOCTYPE svg PUBLIC "-//W3C//DTD SVG 20010904//EN"
 "http://www.w3.org/TR/2001/REC-SVG-20010904/DTD/svg10.dtd">
<svg version="1.0" xmlns="http://www.w3.org/2000/svg"
 width="581.000000pt" height="552.000000pt" viewBox="0 0 581.000000 552.000000"
 preserveAspectRatio="xMidYMid meet">

<g transform="translate(0.000000,552.000000) scale(0.100000,-0.100000)"
fill="#000000" stroke="none">
<path d="M2735 4925 c-432 -69 -811 -311 -1049 -668 -113 -169 -185 -340 -231
-547 -22 -101 -31 -384 -16 -503 81 -613 527 -1121 1126 -1281 146 -39 231
-50 395 -50 212 -1 365 28 563 104 301 116 580 350 748 627 274 452 299 1020
64 1483 l-28 54 -60 -119 -60 -120 26 -80 c50 -154 62 -237 62 -420 0 -235
-31 -371 -131 -580 -170 -356 -508 -621 -904 -710 -100 -22 -355 -31 -462 -15
-534 76 -966 467 -1098 989 -70 280 -44 573 75 850 117 275 334 502 612 643
168 86 288 120 486 138 317 30 637 -61 893 -252 l50 -37 115 30 c62 17 116 33
118 35 14 13 -152 150 -274 224 -165 101 -370 174 -575 205 -119 18 -333 18
-445 0z"/>
<path d="M2528 4209 l-568 -379 0 -53 c0 -28 7 -234 15 -457 8 -223 15 -435
15 -473 l0 -67 573 381 c314 210 574 383 576 386 5 3 -15 707 -26 921 -3 67
-9 122 -12 121 -3 0 -261 -171 -573 -380z m511 -171 c6 -222 14 -412 16 -424
4 -17 -69 -69 -485 -347 l-489 -326 -5 52 c-9 83 -29 787 -23 793 6 6 969 654
972 654 1 0 7 -181 14 -402z"/>
<path d="M2808 3949 l-88 -60 0 -90 c0 -69 3 -88 13 -83 6 4 52 34 100 66 l88
59 -3 81 c-2 45 -7 83 -13 84 -5 2 -49 -24 -97 -57z"/>
<path d="M2351 3771 l-164 -110 2 -148 c1 -81 4 -149 6 -151 2 -2 77 46 168
107 l165 110 -5 143 c-2 79 -5 146 -6 150 -1 5 -76 -41 -166 -101z"/>
<path d="M2618 3639 l-88 -60 0 -90 c0 -69 3 -88 13 -83 6 4 51 34 100 66 l87
59 0 68 c0 69 -6 102 -19 100 -3 0 -45 -27 -93 -60z"/>
<path d="M4065 4415 c-170 -46 -381 -103 -468 -126 l-157 -42 179 -99 179
-100 72 -204 c40 -112 76 -206 79 -209 4 -2 104 192 224 431 119 239 214 434
209 433 -4 0 -146 -38 -317 -84z"/>
<path d="M2612 3096 l-573 -383 68 -30 c37 -17 247 -108 466 -203 l398 -173
575 384 c429 285 571 385 559 391 -25 14 -889 390 -905 394 -8 2 -273 -169
-588 -380z"/>
<path d="M3250 1649 c-25 -4 -60 -11 -77 -14 l-33 -6 0 -397 c0 -393 0 -398
23 -442 29 -58 86 -91 172 -97 l63 -6 11 65 c15 86 14 88 -10 88 -11 0 -34 13
-50 29 l-29 29 0 381 c0 299 -3 381 -12 380 -7 -1 -33 -5 -58 -10z"/>
<path d="M2467 1553 c-4 -3 -7 -197 -7 -430 l0 -423 100 0 100 0 0 175 0 175
168 2 167 3 3 78 c3 68 1 77 -15 78 -10 0 -87 0 -170 -1 l-153 -1 0 95 0 96
190 0 190 0 0 80 0 80 -283 0 c-156 0 -287 -3 -290 -7z"/>
<path d="M2097 1360 c-104 -19 -191 -85 -236 -180 -23 -49 -26 -67 -26 -165 0
-106 1 -112 34 -172 54 -101 136 -149 268 -160 57 -4 96 -1 142 11 36 9 67 18
69 21 2 2 -1 36 -8 75 l-12 71 -32 -8 c-17 -4 -66 -8 -108 -8 -88 0 -121 17
-151 78 -27 54 -25 156 5 210 33 60 76 80 158 73 36 -3 74 -8 86 -11 19 -6 22
0 35 57 8 35 14 67 14 72 0 27 -156 51 -238 36z"/>
<path d="M3723 1360 c-196 -40 -299 -259 -226 -480 50 -151 222 -225 437 -187
49 9 93 20 99 26 7 7 7 32 -1 77 -6 36 -12 68 -14 69 -2 2 -30 -3 -63 -11
-129 -30 -235 -8 -275 58 -11 18 -20 36 -20 41 0 4 95 7 211 7 l212 0 -5 98
c-7 151 -57 236 -163 282 -50 22 -137 31 -192 20z m110 -154 c31 -7 67 -57 67
-93 0 -23 -2 -23 -121 -23 -134 0 -131 -2 -94 70 17 34 75 62 110 54 6 -1 23
-5 38 -8z"/>
<path d="M1240 1353 c-14 -2 -42 -9 -62 -14 l-38 -10 0 -429 0 -430 90 0 90 0
0 121 c0 121 0 121 23 114 46 -15 158 -17 205 -4 64 18 140 95 167 169 29 81
28 236 -3 304 -35 77 -65 109 -134 146 -61 34 -66 35 -188 36 -69 1 -136 0
-150 -3z m230 -161 c22 -11 44 -35 58 -63 32 -61 29 -187 -6 -236 -32 -44 -80
-59 -148 -44 l-54 12 0 169 c0 188 -5 177 75 179 22 0 56 -7 75 -17z"/>
<path d="M4241 1193 l110 -156 -31 -41 c-50 -68 -190 -278 -190 -287 0 -5 42
-9 93 -9 92 0 94 0 106 27 7 15 37 65 67 111 l55 84 25 -33 c14 -19 45 -69 70
-111 l45 -78 94 0 c52 0 95 4 95 9 0 10 -129 205 -183 275 -21 28 -36 55 -33
62 2 6 50 75 105 152 56 77 101 143 101 146 0 3 -42 6 -92 5 l-93 0 -60 -94
c-33 -52 -63 -95 -66 -95 -4 0 -34 43 -67 95 l-61 95 -100 0 -101 0 111 -157z"/>
</g>
</svg>
